<svg style="position: absolute; width: 0; height: 0; overflow: hidden;" version="1.1" xmlns="http://www.w3.org/2000/svg" xmlns:xlink="http://www.w3.org/1999/xlink">
<defs>
<symbol id="icon-heart" viewBox="0 0 32 32">
<title>heart</title>
<path class="path1" d="M15.234 28.417l-10.839-10.817c-1.13-1.13-1.943-2.493-2.323-3.934-0.371-1.385-0.364-2.879 0.14-4.389 0.44-1.315 1.208-2.499 2.197-3.476 0.977-0.966 2.193-1.71 3.532-2.137 1.549-0.493 3.082-0.502 4.521-0.131 1.27 0.341 2.469 0.984 3.531 1.875 1.068-0.892 2.268-1.533 3.546-1.857 1.439-0.388 2.972-0.373 4.53 0.123 1.322 0.419 2.54 1.163 3.529 2.128 0.982 0.978 1.757 2.161 2.183 3.486h0.008c0.495 1.492 0.511 2.987 0.14 4.38-0.387 1.441-1.192 2.804-2.331 3.934l-0.054 0.040-10.776 10.776c-0.419 0.416-1.123 0.416-1.534 0v0 0zM17.294 7.164v0l-0.014 0.015-3.477 3.467c-0.242 0.263-0.659 0.263-0.923 0-0.247-0.254-0.262-0.664 0-0.927l2.207-2.2-0.023-0.046c-0.946-0.884-2.021-1.526-3.16-1.829-1.051-0.278-2.174-0.269-3.32 0.095-0.984 0.324-1.899 0.883-2.657 1.625-0.744 0.729-1.331 1.611-1.64 2.601-0.359 1.085-0.373 2.147-0.117 3.144 0.286 1.053 0.906 2.075 1.773 2.926l10.050 10.064 10.018-9.986 0.040-0.078c0.875-0.851 1.485-1.874 1.773-2.926 0.269-0.999 0.263-2.060-0.11-3.144v0c-0.316-0.99-0.898-1.872-1.641-2.601-0.756-0.727-1.671-1.301-2.663-1.618-1.13-0.371-2.26-0.371-3.313-0.102-1.007 0.264-1.951 0.792-2.802 1.519v0z"></path>
</symbol>
<symbol id="icon-light" viewBox="0 0 32 32">
<title>light</title>
<path class="path1" d="M19.743 12.002c-0.966 0.976-2.281 1.56-3.753 1.56-0.708 0-1.398-0.144-2.012-0.402-0.643-0.266-1.225-0.665-1.706-1.14-0.276-0.271-0.717-0.271-0.984-0.017-0.29 0.276-0.29 0.725-0.017 1.009 0.617 0.606 1.35 1.115 2.172 1.441 0.782 0.33 1.657 0.522 2.547 0.522 1.848 0 3.537-0.753 4.735-1.962 0.275-0.284 0.275-0.733 0-1.009-0.268-0.255-0.725-0.255-0.982-0.001v0zM21.372 27.22v0h-10.748c-0.39 0-0.7 0.318-0.7 0.717 0 0.381 0.31 0.699 0.7 0.699h10.748c0.392 0 0.717-0.318 0.717-0.699 0-0.399-0.325-0.717-0.717-0.717v0zM27.557 12.629v0c0-3.187-1.29-6.076-3.386-8.179-2.081-2.090-4.984-3.386-8.18-3.386-3.186 0-6.066 1.297-8.17 3.386-2.090 2.103-3.378 4.992-3.378 8.179 0 2.047 0.533 3.984 1.49 5.658 0.857 1.547 2.071 2.861 3.519 3.861v3.251c0 0.639 0.524 1.165 1.172 1.165h10.748c0.651 0 1.174-0.525 1.174-1.165v-3.251c1.447-0.999 2.661-2.314 3.537-3.861 0.933-1.682 1.474-3.61 1.474-5.658v0zM24.037 17.156v0 0h-0.008c-0.774 1.382-1.906 2.543-3.263 3.378-0.357 0.216-0.557 0.596-0.557 0.978h-0.008v2.713h-8.403v-2.713c0-0.457-0.276-0.856-0.659-1.046-1.323-0.822-2.412-1.963-3.177-3.31v0c-0.76-1.339-1.184-2.891-1.184-4.526 0-2.547 1.041-4.844 2.713-6.526 1.663-1.652 3.96-2.695 6.498-2.695 2.555 0 4.868 1.042 6.531 2.695 1.657 1.683 2.687 3.979 2.687 6.526 0 1.644-0.431 3.186-1.171 4.526v0zM19.11 29.666v0h-6.223c-0.381 0-0.708 0.317-0.708 0.699 0 0.393 0.327 0.7 0.708 0.7h6.223c0.4 0 0.7-0.306 0.7-0.7 0-0.382-0.3-0.699-0.7-0.699v0z"></path>
</symbol>
<symbol id="icon-lighton" viewBox="0 0 32 32">
<title>lighton</title>
<path class="path1" d="M4.704 14.864c0.398 0 0.719 0.322 0.719 0.72 0 0.387-0.321 0.714-0.719 0.714h-2.6c-0.388 0-0.717-0.327-0.717-0.714 0-0.399 0.329-0.72 0.717-0.72h2.6zM15.987 5.816v0c5.384 0 9.774 4.395 9.774 9.769 0 5.386-4.392 9.775-9.774 9.775-5.367 0-9.768-4.39-9.768-9.775 0.001-5.374 4.402-9.769 9.768-9.769v0zM15.987 8.211v0c-4.064 0-7.382 3.299-7.382 7.374 0 4.051 3.336 7.387 7.382 7.387 4.062 0 7.388-3.337 7.388-7.387 0.001-4.063-3.309-7.374-7.388-7.374v0zM12.11 27.17v0c-0.39 0-0.712-0.319-0.712-0.712 0-0.408 0.323-0.716 0.712-0.716h7.76c0.4 0 0.72 0.307 0.72 0.716 0 0.393-0.321 0.712-0.72 0.712h-7.76zM14.235 31.030v0c-0.398 0-0.72-0.319-0.72-0.714 0-0.388 0.323-0.714 0.72-0.714h3.528c0.39 0 0.694 0.326 0.694 0.714 0 0.395-0.304 0.714-0.694 0.714h-3.528zM12.11 29.097v0c-0.39 0-0.712-0.321-0.712-0.714 0-0.395 0.323-0.708 0.712-0.708h7.76c0.4 0 0.72 0.313 0.72 0.708 0 0.393-0.321 0.714-0.72 0.714h-7.76zM21.952 15.456v0c-0.295-0.29-0.643-0.523-1.039-0.702-0.204-0.074-0.416-0.154-0.637-0.197-0.211-0.029-0.431-0.067-0.649-0.067-0.627 0-1.288 0.204-1.812 0.543-0.169-0.099-0.345-0.204-0.549-0.278-0.195-0.074-0.406-0.154-0.618-0.197-0.221-0.029-0.439-0.067-0.659-0.067-0.204 0-0.424 0.038-0.643 0.067-0.221 0.044-0.44 0.123-0.627 0.197s-0.373 0.179-0.543 0.278c-0.169-0.099-0.355-0.204-0.541-0.278-0.202-0.074-0.406-0.154-0.627-0.197-0.227-0.029-0.439-0.067-0.651-0.067-0.635 0-1.294 0.204-1.837 0.561-0.176 0.129-0.339 0.27-0.49 0.406-0.28 0.29-0.28 0.739 0 0.997 0.286 0.29 0.737 0.29 1.015 0 0.349-0.339 0.813-0.523 1.313-0.523 0.143 0 0.262 0.018 0.364 0.025 0.136 0.024 0.247 0.061 0.373 0.109 0.202 0.088 0.388 0.222 0.551 0.382l0.007 0.006h0.018l0.017 0.019 0.017 0.031h0.017v0.018l0.018 0.019h0.017l0.017 0.019h0.010l0.017 0.006 0.018 0.006 0.007 0.019h0.019l0.017 0.018h0.017l0.017 0.006 0.018 0.013 0.017 0.007 0.017 0.006h0.018l0.017 0.013h0.017l0.010 0.007h0.076l0.017 0.018h0.171l0.017-0.018h0.068l0.018-0.007h0.017l0.017-0.013h0.017l0.018-0.006 0.008-0.007h0.008l0.010-0.013h0.007l0.018-0.006h0.017l0.017-0.018h0.018l0.017-0.019v-0.006l0.017-0.006h0.017l0.018-0.019h0.008l0.018-0.019 0.017-0.018h0.017l0.008-0.031 0.017-0.019h0.017v-0.008h0.018c0.152-0.16 0.339-0.296 0.551-0.382 0.109-0.049 0.227-0.086 0.355-0.109 0.109-0.008 0.227-0.025 0.364-0.025 0.152 0 0.269 0.018 0.388 0.025 0.112 0.024 0.238 0.061 0.339 0.109 0.112 0.050 0.221 0.099 0.323 0.167 0.084 0.067 0.152 0.13 0.228 0.196h0.008l0.026 0.024c0.296 0.29 0.744 0.29 1.013 0 0.357-0.339 0.814-0.523 1.315-0.523 0.152 0 0.269 0.018 0.371 0.025 0.119 0.024 0.253 0.061 0.355 0.109 0.221 0.093 0.424 0.234 0.592 0.388 0.271 0.29 0.728 0.29 1.006 0 0.27-0.258 0.27-0.707-0.011-0.995v0zM8.521 7.096v0l-1.845-1.848c-0.271-0.27-0.728-0.27-1.016 0-0.269 0.29-0.269 0.745 0 1.016l1.845 1.847c0.288 0.283 0.745 0.283 1.016 0 0.288-0.283 0.288-0.732 0-1.016v0zM27.278 16.298v0c-0.39 0-0.711-0.327-0.711-0.714 0-0.399 0.321-0.72 0.711-0.72h2.607c0.397 0 0.728 0.322 0.728 0.72 0 0.387-0.333 0.714-0.728 0.714h-2.607zM24.467 8.112v0l1.845-1.847c0.288-0.271 0.288-0.727 0.018-1.010-0.288-0.277-0.739-0.277-1.016 0l-1.845 1.846c-0.28 0.278-0.28 0.727 0 1.011 0.271 0.283 0.719 0.283 0.999 0v0zM16.714 4.301v0c0 0.388-0.321 0.72-0.727 0.72-0.39 0-0.712-0.333-0.712-0.72v-2.611c0-0.388 0.323-0.72 0.712-0.72 0.406 0 0.727 0.333 0.727 0.72v2.611z"></path>
</symbol>
<symbol id="icon-msn" viewBox="0 0 32 32">
<title>msn</title>
<path class="path1" d="M10.842 13.529c0.564 0 1.066 0.229 1.439 0.595 0.374 0.38 0.603 0.884 0.603 1.446 0 0.564-0.229 1.066-0.603 1.432-0.372 0.366-0.875 0.609-1.439 0.609s-1.076-0.243-1.442-0.609c-0.372-0.366-0.595-0.868-0.595-1.432s0.222-1.066 0.595-1.446c0.366-0.366 0.878-0.595 1.442-0.595v0zM16.008 3.411v0c3.816 0 7.284 1.341 9.798 3.511 2.566 2.203 4.16 5.257 4.16 8.649 0 3.383-1.594 6.446-4.16 8.64-2.514 2.178-5.989 3.511-9.798 3.511-1.158 0-2.28-0.13-3.346-0.357-0.921-0.193-1.813-0.457-2.657-0.823l-3.362 1.813c-0.326 0.168-0.676 0.25-1.027 0.229v0c-0.352-0.030-0.686-0.162-0.991-0.381-0.289-0.229-0.503-0.519-0.625-0.863v0c-0.133-0.326-0.152-0.685-0.076-1.052l0.807-3.541c-0.793-0.945-1.449-2.005-1.89-3.124-0.517-1.264-0.807-2.645-0.807-4.053 0-3.392 1.585-6.446 4.16-8.649 2.514-2.17 5.988-3.511 9.813-3.511v0zM24.419 8.545v0c-2.149-1.837-5.12-2.986-8.411-2.986-3.306 0-6.278 1.15-8.427 2.986-2.089 1.805-3.398 4.298-3.398 7.025 0 1.128 0.229 2.225 0.64 3.236 0.427 1.051 1.042 2.021 1.819 2.865 0.268 0.254 0.406 0.633 0.312 1.031l-0.791 3.49 3.292-1.784c0.28-0.145 0.631-0.176 0.945-0.030 0.838 0.386 1.743 0.701 2.713 0.899 0.914 0.197 1.89 0.295 2.895 0.295 3.292 0 6.262-1.143 8.411-2.986 2.103-1.799 3.389-4.289 3.389-7.016s-1.287-5.219-3.389-7.025v0zM11.375 15.038v0c-0.137-0.137-0.329-0.229-0.534-0.229-0.207 0-0.396 0.092-0.534 0.229-0.122 0.122-0.213 0.32-0.213 0.534s0.091 0.397 0.213 0.518c0.137 0.144 0.326 0.229 0.534 0.229 0.204 0 0.396-0.086 0.534-0.229 0.137-0.121 0.213-0.305 0.213-0.518s-0.076-0.412-0.213-0.534v0zM16.008 13.529v0c0.564 0 1.066 0.229 1.432 0.595 0.372 0.38 0.595 0.884 0.595 1.446 0 0.564-0.222 1.066-0.595 1.432-0.366 0.366-0.868 0.609-1.432 0.609-0.573 0-1.082-0.243-1.447-0.609s-0.603-0.868-0.603-1.432c0-0.563 0.238-1.066 0.603-1.446 0.365-0.366 0.874-0.595 1.447-0.595v0zM16.526 15.038v0c-0.137-0.137-0.32-0.229-0.518-0.229-0.213 0-0.406 0.092-0.535 0.229-0.136 0.122-0.221 0.32-0.221 0.534s0.085 0.397 0.221 0.518c0.128 0.144 0.321 0.229 0.535 0.229 0.198 0 0.381-0.086 0.518-0.229 0.137-0.121 0.229-0.305 0.229-0.518s-0.091-0.412-0.229-0.534v0zM21.158 13.529v0c0.564 0 1.066 0.229 1.447 0.595 0.366 0.38 0.595 0.884 0.595 1.446 0 0.564-0.229 1.066-0.595 1.432-0.381 0.366-0.884 0.609-1.447 0.609s-1.066-0.243-1.447-0.609c-0.366-0.366-0.595-0.868-0.595-1.432s0.229-1.066 0.595-1.446c0.381-0.366 0.884-0.595 1.447-0.595v0zM21.691 15.038v0c-0.137-0.137-0.32-0.229-0.534-0.229s-0.396 0.092-0.534 0.229c-0.137 0.122-0.213 0.32-0.213 0.534s0.076 0.397 0.213 0.518c0.137 0.144 0.32 0.229 0.534 0.229s0.396-0.086 0.534-0.229c0.128-0.121 0.213-0.305 0.213-0.518s-0.085-0.412-0.213-0.534v0z"></path>
</symbol>
<symbol id="icon-mygame" viewBox="0 0 36 32">
<title>mygame</title>
<path class="path1" fill="#000" d="M4.331 25.495c0.034 0.002 0.084 0.024 0.047-0.094 0.016 0.037 0.067 0.012 0.052 0.105-0.017 0.017-0.042 0.018-0.064 0.024 0.102 0.105 0.203 0.212 0.309 0.315 0.004-0.010 0.001-0.019-0.016-0.022 0.043-0.078 0.107 0.062 0.165-0.030 0.062 0.061-0.053 0.054-0.023 0.17 0.536 0.509 1.122 0.988 1.751 1.43 0.001 0 0.001 0 0.001 0s0 0.001 0.001 0.002c0.274 0.193 0.555 0.381 0.845 0.56 0.027-0.071 0.159-0.089 0.203-0.153 0.034 0.098 0.029 0.142 0.010 0.276-0.026-0.093-0.097-0.096-0.157-0.087 0.602 0.368 1.239 0.706 1.904 1.011 0-0.005 0-0.009 0.001-0.014 0.002 0.005 0.005 0.012 0.007 0.018 0.018 0.008 0.035 0.017 0.053 0.025 0.009-0.029 0.014-0.064 0.014-0.11 0.016 0.109 0.099 0.038 0.112-0.066 0.020 0.041 0.063 0.041 0.109 0.037 0.012 0.111-0.032 0.106-0.041 0.172 0.017-0.162-0.082-0.058-0.164-0.018 0.373 0.169 0.757 0.325 1.148 0.472 0.054-0.021 0.1-0.031 0.157-0.076 0.036 0.046 0.028 0.078 0.018 0.142 0.324 0.119 0.652 0.231 0.986 0.334 0.019-0.016 0.040-0.029 0.062-0.032 0.015 0.013 0.025 0.034 0.034 0.060 0.533 0.162 1.080 0.302 1.638 0.422 0.046-0.059 0.116-0.092 0.162-0.017-0.005 0.019-0.009 0.035-0.014 0.047 0.743 0.154 1.505 0.272 2.285 0.349 0.001-0.008 0.002-0.016 0.003-0.022 0.072 0.021 0.054 0.020 0.128 0.003 0.001-0.034-0.021-0.028-0.036-0.035-0.015-0.101 0.091 0.081 0.145 0.072-0.001 0.001-0.002 0.002-0.003 0.003 0.434 0.038 0.872 0.067 1.315 0.079 2.722 0.076 5.304-0.351 7.603-1.166 0.034-0.023 0.066-0.040 0.093-0.033 5.487-1.977 9.323-6.19 9.462-11.171 0.197-7.089-7.166-13.045-16.446-13.302-2.744-0.076-5.345 0.358-7.657 1.186 0.001 0.001 0.002 0.001 0.003 0.002-0.012 0.126-0.126 0.184-0.168 0.133 0.020-0.034 0.052-0.077 0.084-0.106-0.182 0.066-0.363 0.134-0.541 0.205-1.074-0.937-2.888-2.847-3.562-5.517 0 0-1.061 3.559-0.389 7.713-0.249 0.187-0.487 0.382-0.72 0.581 0 0.018-0.001 0.036 0 0.053-0.051-0.030-0.049 0.048-0.092 0.032 0-0.002 0-0.003 0-0.006-2.486 2.157-4.029 4.973-4.116 8.095-0.082 2.958 1.157 5.718 3.299 7.951z"></path>
<path class="path2" fill="#000" opacity="0.3" d="M6.904 13.186c0-0.063-0.016-0.158-0.048-0.285-0.016-0.143-0.032-0.238-0.047-0.285 0.602-0.032 1.403-0.111 2.401-0.238l0.119 0.57c-0.079 0-0.198 0.016-0.356 0.048-0.222 0.016-0.389 0.032-0.499 0.047v0.808h1.284c-0.032-0.856-0.047-1.426-0.047-1.711h0.642c0 0.317 0.015 0.888 0.047 1.712h1.997v0.594h-1.949l0.024 0.214c0.032 0.444 0.071 0.808 0.119 1.094 0.317-0.269 0.65-0.65 0.999-1.141l0.523 0.404c-0.476 0.587-0.919 1.054-1.331 1.403 0.031 0.032 0.063 0.087 0.095 0.166 0.048 0.079 0.079 0.143 0.095 0.19 0.143 0.254 0.301 0.38 0.475 0.38 0.143 0 0.23-0.087 0.261-0.262 0.031-0.126 0.079-0.357 0.143-0.689 0.015-0.063 0.024-0.103 0.024-0.119 0.206 0.111 0.389 0.198 0.547 0.262-0.047 0.412-0.127 0.729-0.237 0.951-0.127 0.349-0.365 0.523-0.713 0.523-0.444 0-0.8-0.237-1.070-0.713-0.047-0.095-0.095-0.19-0.143-0.285-0.285 0.206-0.681 0.436-1.189 0.689-0.016-0.016-0.040-0.048-0.071-0.095-0.143-0.19-0.254-0.325-0.333-0.404 0.523-0.253 0.99-0.523 1.403-0.808-0.111-0.396-0.19-0.903-0.237-1.521l-0.024-0.238h-1.331v0.856c0.348-0.048 0.689-0.103 1.022-0.166 0 0.047 0 0.119 0 0.214-0.016 0.174-0.016 0.309 0 0.404-0.333 0.047-0.674 0.095-1.022 0.143v1.141c0.015 0.46-0.19 0.689-0.618 0.689-0.159 0.016-0.436 0.024-0.832 0.024-0.016-0.064-0.040-0.166-0.071-0.309-0.032-0.127-0.056-0.222-0.071-0.285 0.095 0 0.293 0 0.594 0 0.238 0.015 0.348-0.087 0.333-0.309v-0.832l-1.046 0.166-0.119-0.642c0.349-0.032 0.737-0.079 1.165-0.143v-0.951h-1.141v-0.594h1.141v-0.737c-0.079 0-0.198 0.008-0.357 0.024-0.253 0.032-0.436 0.047-0.547 0.047zM11.634 13.662c-0.333-0.333-0.665-0.642-0.998-0.927l0.428-0.38c0.19 0.143 0.531 0.436 1.022 0.88l-0.451 0.428z"></path>
<path class="path3" fill="#000" opacity="0.3" d="M12.894 13.4v-0.57h1.759c0.047-0.079 0.103-0.198 0.166-0.357 0.063-0.143 0.111-0.253 0.143-0.333l0.713 0.071c-0.032 0.064-0.080 0.166-0.143 0.309-0.064 0.127-0.111 0.23-0.143 0.309h3.066v0.57h-3.352c-0.032 0.047-0.071 0.119-0.119 0.214-0.095 0.159-0.166 0.27-0.214 0.333h3.090v3.067c0.032 0.491-0.238 0.736-0.808 0.736-0.254 0.016-0.57 0.024-0.951 0.024-0.016-0.095-0.047-0.222-0.095-0.38-0.016-0.079-0.032-0.143-0.048-0.19 0.253 0 0.523 0 0.808 0 0.317 0.032 0.46-0.095 0.428-0.38v-0.214h-2.734v1.212h-0.642v-2.663c-0.254 0.27-0.523 0.523-0.808 0.761-0.047-0.111-0.127-0.293-0.238-0.547-0.032-0.048-0.047-0.079-0.047-0.095 0.713-0.586 1.251-1.212 1.616-1.878h-1.45zM14.463 14.493v0.547h2.734v-0.547h-2.734zM14.463 15.539v0.547h2.734v-0.547h-2.734z"></path>
<path class="path4" fill="#000" opacity="0.3" d="M19.075 13.186c0-0.063-0.016-0.158-0.047-0.285-0.016-0.143-0.032-0.238-0.048-0.285 0.602-0.032 1.403-0.111 2.401-0.238l0.119 0.57c-0.080 0-0.199 0.016-0.357 0.048-0.222 0.016-0.389 0.032-0.499 0.047v0.808h1.284c-0.032-0.856-0.048-1.426-0.048-1.711h0.642c0 0.317 0.016 0.888 0.048 1.712h1.996v0.594h-1.949l0.024 0.214c0.031 0.444 0.071 0.808 0.119 1.094 0.317-0.269 0.65-0.65 0.998-1.141l0.523 0.404c-0.475 0.587-0.919 1.054-1.331 1.403 0.031 0.032 0.064 0.087 0.095 0.166 0.047 0.079 0.079 0.143 0.095 0.19 0.143 0.254 0.301 0.38 0.475 0.38 0.142 0 0.23-0.087 0.261-0.262 0.032-0.126 0.079-0.357 0.143-0.689 0.016-0.063 0.024-0.103 0.024-0.119 0.205 0.111 0.388 0.198 0.546 0.262-0.048 0.412-0.127 0.729-0.238 0.951-0.127 0.349-0.365 0.523-0.713 0.523-0.444 0-0.8-0.237-1.070-0.713-0.048-0.095-0.095-0.19-0.143-0.285-0.285 0.206-0.682 0.436-1.189 0.689-0.016-0.016-0.040-0.048-0.071-0.095-0.143-0.19-0.254-0.325-0.333-0.404 0.523-0.253 0.99-0.523 1.403-0.808-0.111-0.396-0.19-0.903-0.238-1.521l-0.023-0.238h-1.331v0.856c0.349-0.048 0.689-0.103 1.022-0.166 0 0.047 0 0.119 0 0.214-0.016 0.174-0.016 0.309 0 0.404-0.333 0.047-0.674 0.095-1.022 0.143v1.141c0.016 0.46-0.19 0.689-0.618 0.689-0.159 0.016-0.436 0.024-0.832 0.024-0.016-0.064-0.040-0.166-0.071-0.309-0.032-0.127-0.055-0.222-0.071-0.285 0.095 0 0.293 0 0.594 0 0.238 0.015 0.349-0.087 0.332-0.309v-0.832l-1.046 0.166-0.119-0.642c0.349-0.032 0.736-0.079 1.165-0.143v-0.951h-1.141v-0.594h1.141v-0.737c-0.079 0-0.198 0.008-0.356 0.024-0.254 0.032-0.436 0.047-0.547 0.047zM23.805 13.662c-0.333-0.333-0.666-0.642-0.999-0.927l0.428-0.38c0.19 0.143 0.531 0.436 1.023 0.88l-0.452 0.428z"></path>
<path class="path5" fill="#000" opacity="0.3" d="M25.137 17.75v-4.659h0.642c0.047-0.174 0.111-0.412 0.19-0.713 0.016-0.095 0.031-0.166 0.048-0.214l0.666 0.095c-0.064 0.285-0.143 0.563-0.238 0.832h1.023v4.635h-0.594v-0.428h-1.118v0.451l-0.618-0.001zM25.755 13.685v1.236h1.118v-1.236h-1.118zM25.755 15.516v1.236h1.118v-1.236h-1.118zM28.346 17.726c-0.032-0.238-0.071-0.436-0.119-0.594 0.095 0 0.238 0 0.428 0 0.206 0.016 0.365 0.024 0.475 0.024 0.428 0 0.642-0.206 0.642-0.618 0.016-0.253 0.031-0.792 0.048-1.616 0.015-0.586 0.024-0.999 0.024-1.236h-1.308c-0.143 0.317-0.285 0.61-0.428 0.88-0.032-0.016-0.079-0.048-0.143-0.095-0.079-0.048-0.214-0.119-0.404-0.214 0.364-0.665 0.65-1.363 0.856-2.092l0.642 0.143c-0.016 0.063-0.047 0.151-0.095 0.261-0.064 0.222-0.127 0.396-0.19 0.523h1.712c-0.032 1.728-0.064 2.916-0.095 3.566 0.016 0.713-0.325 1.061-1.022 1.046-0.317 0.015-0.658 0.023-1.022 0.023zM28.845 16.133c-0.27-0.412-0.563-0.832-0.88-1.26l0.499-0.309c0.285 0.333 0.594 0.737 0.927 1.212l-0.547 0.356z"></path>
<path class="path6" fill="#000" opacity="0.3" d="M10.052 26.373v-0.565h6.81v0.565h-6.81zM10.25 21.993v-1.469h2.826c-0.019-0.038-0.038-0.094-0.056-0.17-0.057-0.226-0.095-0.377-0.113-0.452l0.848-0.085 0.198 0.707h2.684v1.469h-0.763v-0.848h-4.861v0.848h-0.763zM10.928 25.271v-2.628h5.030v2.628h-5.030zM11.324 22.163v-0.537h4.21v0.537h-4.21zM11.691 23.18v0.537h3.504v-0.537h-3.504zM11.691 24.169v0.565h3.504v-0.565h-3.504z"></path>
<path class="path7" fill="#000" opacity="0.3" d="M17.315 21.372v-0.65h3.051c-0.075-0.226-0.17-0.471-0.282-0.735l0.876-0.113c0.094 0.282 0.188 0.565 0.282 0.848h2.797v0.65l-6.725 0.001zM17.992 26.656v-2.544h5.341v2.544h-0.735v-0.396h-3.872v0.396h-0.735zM18.021 22.474v-0.565h5.341v0.565h-5.341zM18.021 23.604v-0.593h5.341v0.593h-5.341zM18.727 24.734v0.932h3.872v-0.932h-3.872z"></path>
<path class="path8" fill="#000" opacity="0.3" d="M26.611 20.552l-0.17 4.154h-0.707l-0.141-4.154h1.018zM26.554 26.345h-0.904v-0.904h0.904v0.904z"></path>
<path class="path9" fill="#fff" d="M6.617 12.899c0-0.063-0.016-0.158-0.048-0.285-0.016-0.143-0.032-0.238-0.047-0.285 0.602-0.032 1.403-0.111 2.401-0.238l0.119 0.57c-0.079 0-0.198 0.016-0.356 0.048-0.222 0.016-0.389 0.032-0.499 0.047v0.808h1.284c-0.032-0.856-0.047-1.426-0.047-1.712h0.642c0 0.317 0.015 0.888 0.047 1.712h1.997v0.594h-1.949l0.024 0.214c0.032 0.444 0.071 0.808 0.119 1.094 0.317-0.269 0.65-0.65 0.999-1.141l0.523 0.404c-0.476 0.587-0.919 1.054-1.331 1.403 0.031 0.032 0.063 0.087 0.095 0.166 0.048 0.079 0.079 0.143 0.095 0.19 0.143 0.254 0.301 0.38 0.475 0.38 0.143 0 0.23-0.087 0.261-0.262 0.031-0.126 0.079-0.357 0.143-0.689 0.015-0.063 0.024-0.103 0.024-0.119 0.206 0.111 0.389 0.198 0.547 0.261-0.047 0.412-0.127 0.729-0.237 0.951-0.127 0.349-0.365 0.523-0.713 0.523-0.444 0-0.8-0.238-1.070-0.713-0.047-0.095-0.095-0.19-0.143-0.285-0.285 0.206-0.681 0.436-1.189 0.689-0.016-0.016-0.040-0.048-0.071-0.095-0.143-0.19-0.254-0.325-0.333-0.404 0.523-0.253 0.99-0.523 1.403-0.808-0.111-0.396-0.19-0.903-0.237-1.521l-0.024-0.238h-1.331v0.856c0.348-0.048 0.689-0.103 1.022-0.166 0 0.047 0 0.119 0 0.214-0.016 0.174-0.016 0.309 0 0.404-0.333 0.047-0.674 0.095-1.022 0.143v1.141c0.015 0.46-0.19 0.689-0.618 0.689-0.159 0.016-0.436 0.024-0.832 0.024-0.016-0.064-0.040-0.166-0.071-0.309-0.032-0.127-0.056-0.222-0.071-0.285 0.095 0 0.293 0 0.594 0 0.238 0.015 0.348-0.087 0.333-0.309v-0.832l-1.046 0.166-0.119-0.642c0.349-0.032 0.737-0.079 1.165-0.143v-0.951h-1.141v-0.594h1.141v-0.737c-0.079 0-0.198 0.008-0.357 0.024-0.253 0.032-0.436 0.047-0.547 0.047zM11.347 13.374c-0.333-0.333-0.665-0.642-0.998-0.927l0.428-0.38c0.19 0.143 0.531 0.436 1.022 0.88l-0.451 0.428z"></path>
<path class="path10" fill="#fff" d="M12.607 13.113v-0.57h1.759c0.047-0.079 0.103-0.198 0.166-0.357 0.063-0.143 0.111-0.253 0.143-0.333l0.713 0.071c-0.032 0.064-0.080 0.166-0.143 0.309-0.064 0.127-0.111 0.23-0.143 0.309h3.066v0.57h-3.352c-0.032 0.047-0.071 0.119-0.119 0.214-0.095 0.159-0.166 0.27-0.214 0.333h3.090v3.067c0.032 0.491-0.238 0.737-0.808 0.737-0.254 0.015-0.57 0.024-0.951 0.024-0.016-0.095-0.047-0.222-0.095-0.38-0.016-0.079-0.032-0.143-0.048-0.19 0.253 0 0.523 0 0.808 0 0.317 0.032 0.46-0.095 0.428-0.38v-0.214h-2.734v1.212h-0.642v-2.663c-0.254 0.27-0.523 0.523-0.808 0.761-0.047-0.111-0.127-0.293-0.238-0.547-0.032-0.048-0.047-0.079-0.047-0.095 0.713-0.586 1.251-1.212 1.616-1.878h-1.45zM14.176 14.206v0.547h2.734v-0.547h-2.734zM14.176 15.252v0.547h2.734v-0.547h-2.734z"></path>
<path class="path11" fill="#fff" d="M18.788 12.899c0-0.063-0.016-0.158-0.047-0.285-0.016-0.143-0.032-0.238-0.048-0.285 0.602-0.032 1.403-0.111 2.401-0.238l0.119 0.57c-0.080 0-0.199 0.016-0.357 0.048-0.222 0.016-0.389 0.032-0.499 0.047v0.808h1.284c-0.032-0.856-0.048-1.426-0.048-1.712h0.642c0 0.317 0.016 0.888 0.048 1.712h1.996v0.594h-1.949l0.024 0.214c0.031 0.444 0.071 0.808 0.119 1.094 0.317-0.269 0.65-0.65 0.998-1.141l0.523 0.404c-0.475 0.587-0.919 1.054-1.331 1.403 0.031 0.032 0.064 0.087 0.095 0.166 0.047 0.079 0.079 0.143 0.095 0.19 0.143 0.254 0.301 0.38 0.475 0.38 0.142 0 0.23-0.087 0.261-0.262 0.032-0.126 0.079-0.357 0.143-0.689 0.016-0.063 0.024-0.103 0.024-0.119 0.205 0.111 0.388 0.198 0.546 0.261-0.048 0.412-0.127 0.729-0.238 0.951-0.127 0.349-0.365 0.523-0.713 0.523-0.444 0-0.8-0.238-1.070-0.713-0.048-0.095-0.095-0.19-0.143-0.285-0.285 0.206-0.682 0.436-1.189 0.689-0.016-0.016-0.040-0.048-0.071-0.095-0.143-0.19-0.254-0.325-0.333-0.404 0.523-0.253 0.99-0.523 1.403-0.808-0.111-0.396-0.19-0.903-0.238-1.521l-0.023-0.238h-1.331v0.856c0.349-0.048 0.689-0.103 1.022-0.166 0 0.047 0 0.119 0 0.214-0.016 0.174-0.016 0.309 0 0.404-0.333 0.047-0.674 0.095-1.022 0.143v1.141c0.016 0.46-0.19 0.689-0.618 0.689-0.159 0.016-0.436 0.024-0.832 0.024-0.016-0.064-0.040-0.166-0.071-0.309-0.032-0.127-0.055-0.222-0.071-0.285 0.095 0 0.293 0 0.594 0 0.238 0.015 0.349-0.087 0.332-0.309v-0.832l-1.046 0.166-0.119-0.642c0.348-0.032 0.736-0.079 1.165-0.143v-0.951h-1.141v-0.594h1.141v-0.737c-0.079 0-0.198 0.008-0.356 0.024-0.254 0.032-0.436 0.047-0.547 0.047zM23.518 13.374c-0.333-0.333-0.666-0.642-0.999-0.927l0.428-0.38c0.19 0.143 0.531 0.436 1.023 0.88l-0.452 0.428z"></path>
<path class="path12" fill="#fff" d="M24.849 17.463v-4.659h0.642c0.047-0.174 0.111-0.412 0.19-0.713 0.016-0.095 0.031-0.166 0.048-0.214l0.666 0.095c-0.064 0.285-0.143 0.563-0.238 0.832h1.023v4.635h-0.594v-0.428h-1.118v0.452l-0.618-0.001zM25.467 13.398v1.236h1.118v-1.236h-1.118zM25.467 15.228v1.236h1.118v-1.236h-1.118zM28.059 17.439c-0.032-0.238-0.071-0.436-0.119-0.594 0.095 0 0.238 0 0.428 0 0.206 0.016 0.365 0.024 0.475 0.024 0.428 0 0.642-0.206 0.642-0.618 0.016-0.253 0.031-0.792 0.048-1.616 0.015-0.586 0.024-0.999 0.024-1.236h-1.307c-0.143 0.317-0.285 0.61-0.428 0.88-0.032-0.016-0.079-0.048-0.143-0.095-0.079-0.048-0.214-0.119-0.404-0.214 0.364-0.665 0.65-1.363 0.856-2.092l0.642 0.143c-0.016 0.063-0.047 0.151-0.095 0.261-0.064 0.222-0.127 0.396-0.19 0.523h1.712c-0.032 1.728-0.064 2.916-0.095 3.565 0.016 0.713-0.325 1.061-1.022 1.046-0.317 0.015-0.658 0.024-1.022 0.024zM28.557 15.846c-0.27-0.412-0.563-0.832-0.88-1.26l0.499-0.309c0.285 0.333 0.594 0.737 0.927 1.212l-0.547 0.356z"></path>
<path class="path13" fill="#fff" d="M9.765 26.086v-0.565h6.81v0.565h-6.81zM9.963 21.706v-1.469h2.826c-0.019-0.038-0.038-0.094-0.056-0.17-0.057-0.226-0.095-0.377-0.113-0.452l0.848-0.085 0.198 0.707h2.685v1.469h-0.763v-0.848h-4.861v0.848h-0.763zM10.641 24.984v-2.628h5.030v2.628h-5.030zM11.036 21.876v-0.537h4.21v0.537h-4.21zM11.404 22.893v0.537h3.504v-0.537h-3.504zM11.404 23.882v0.565h3.504v-0.565h-3.504z"></path>
<path class="path14" fill="#fff" d="M17.027 21.085v-0.65h3.051c-0.075-0.226-0.17-0.471-0.282-0.735l0.876-0.113c0.094 0.282 0.188 0.565 0.282 0.848h2.797v0.65l-6.725 0.001zM17.705 26.369v-2.544h5.341v2.544h-0.735v-0.396h-3.872v0.396h-0.735zM17.733 22.187v-0.565h5.341v0.565h-5.341zM17.733 23.317v-0.593h5.341v0.593h-5.341zM18.44 24.447v0.932h3.872v-0.932h-3.872z"></path>
<path class="path15" fill="#fff" d="M26.323 20.265l-0.17 4.154h-0.707l-0.141-4.154h1.018zM26.267 26.058h-0.904v-0.904h0.904v0.904z"></path>
</symbol>
</defs>
</svg>
